<svg fill="#000000" height="800px" width="800px" version="1.1" id="Layer_1" xmlns="http://www.w3.org/2000/svg" xmlns:xlink="http://www.w3.org/1999/xlink" 
	 viewBox="0 0 511.999 511.999" xml:space="preserve">
<g>
	<g>
		<path d="M511.947,181.935c-0.89-32.018-13.684-62.749-35.752-85.965c-50.552-53.18-134.975-53.979-186.55-2.407
			c-0.012,0.012-0.024,0.024-0.035,0.035c-1.911,1.912-1.875,5.026,0.036,6.938l177.229,177.231
			c1.912,1.912,5.026,1.948,6.938,0.036c0.012-0.011,0.024-0.023,0.036-0.035C499.328,252.29,512.952,218.114,511.947,181.935z"/>
	</g>
</g>
<g>
	<g>
		<path d="M431.36,298.663l-162.609-162.61c-2.532-2.532-6.795-1.593-8.102,1.741c-2.169,5.527-3.945,11.174-5.335,16.897
			c-0.57,5.087-0.898,10.228-0.952,15.4c-0.415,39.575,14.07,76.082,40.787,102.799c24.007,24.008,60.341,39.262,97.194,40.805
			c2.123,0.089,4.246,0.133,6.353,0.133c2.23,0,4.446-0.066,6.656-0.165c8.247-1.508,16.376-3.803,24.262-6.897
			C432.95,305.458,433.893,301.197,431.36,298.663z"/>
	</g>
</g>
<g>
	<g>
		<path d="M357.933,349.385c-34.925-7.461-66.984-24.284-90.989-48.287c-25.104-25.104-41.802-56.782-48.776-91.675
			c-0.77-3.851-5.533-5.272-8.309-2.496l-67.823,67.822c-36.184,36.184-40.827,92.135-13.956,133.408
			c-8.64,5.14-17.754,7.704-26.927,7.487c-14.418-0.351-28.891-7.389-41.856-20.353c-25.975-25.976-25.975-68.24,0-94.215
			l36.844-36.842c7.789-7.789,7.789-20.417,0-28.206c-7.786-7.788-20.416-7.789-28.206,0L31.09,272.872
			C11.042,292.918,0,319.665,0,348.183s11.042,55.265,31.091,75.315c20.346,20.346,44.238,31.42,69.091,32.025
			c0.718,0.017,1.433,0.027,2.147,0.027c19.121,0,37.475-6.257,53.964-18.24c18.259,12.79,39.651,19.215,61.057,19.215
			c27.275,0,54.549-10.382,75.315-31.146l67.697-67.697C363.118,354.926,361.743,350.199,357.933,349.385z"/>
	</g>
</g>
</svg>